<svg xmlns="http://www.w3.org/2000/svg" viewBox="0 0 379.17 500"><defs><style>.cls-1{fill:#13647a;}.cls-2{fill:#1c81a5;}.cls-3{fill:#fff;}</style></defs><title>logo_MICUPO</title><g id="Capa_2" data-name="Capa 2"><g id="Capa_1-2" data-name="Capa 1"><path class="cls-1" d="M209.19,454c31.26,1.35,54.24,5.87,54.24,11.23,0,6.43-33.06,11.65-73.84,11.65s-73.84-5.21-73.84-11.65c0-5.36,23-9.88,54.24-11.23-71.67,1.51-127,11.19-127,22.91C43,489.65,108.65,500,189.59,500s146.55-10.35,146.55-23.12C336.14,465.16,280.86,455.48,209.19,454Z"/><path class="cls-2" d="M353.66,296h0a202.22,202.22,0,0,0,25.52-98.82C379.17,88.26,294.29,0,189.59,0S0,88.26,0,197.13A202.22,202.22,0,0,0,25.52,296h0l.08.13q4.83,8.64,10.46,16.7C74,371.1,123.19,423,189.59,465.2c64-44.08,113.23-93.65,150.18-147.77a198.15,198.15,0,0,0,13.83-21.38Z"/><path class="cls-1" d="M339.77,317.43a198.15,198.15,0,0,0,13.83-21.38l.07-.11h0a202.22,202.22,0,0,0,25.52-98.82C379.17,88.26,294.29,0,189.59,0V465.2C253.6,421.12,302.82,371.55,339.77,317.43Z"/><path class="cls-3" d="M256.19,198.88v51.27c-17.13,12-44.85,17.82-66.63,18.08-23.67.27-50.62-6.12-66.58-18.28V198.63l67,33.52Z"/><polyline class="cls-3" points="269.63 183.59 269.63 231.77 277.19 227.69 277.19 179.79 269.63 183.59"/><polygon class="cls-3" points="189.32 223.71 88.64 173.2 189.32 121.93 290.54 172.78 189.32 223.71"/><polygon class="cls-1" points="270.03 183.41 234.79 165.76 240.67 162.23 277.59 179.61 270.03 183.41"/></g></g></svg>